# xmcd
#
# Track frame offsets: 
#        150
#        12596
#        26534
#        39439
#        50970
#        62762
#        72525
#        84047
#        97360
#        110308
#        122102
#        134279
#        146220
#        154794
#        165119
#
# Disc length: 2377 seconds
#
# Revision: 0
# Processed by: cddbd v1.5.2PL0 Copyright (c) Steve Scherf et al.
# Submitted via: ExactAudioCopyFreeDBPlugin 1.0
#
DISCID=d109470f
DTITLE=Captain Cook Und Seine Singenden Saxophone - Die Große Westernp
DTITLE=arty
DYEAR=2014
DGENRE=Instrumental
TTITLE0=Der Wilde, Wilde Westen
TTITLE1=Taxi Nach Texas
TTITLE2=Da Sprach Der Alte Häuptling Der Indianer
TTITLE3=Auf Meiner Ranch Bin Ich König
TTITLE4=Ich Will 'nen Cowboy Als Mann
TTITLE5=Die Letzte Rose Der Prärie
TTITLE6=Banjo Boy
TTITLE7=Tom Dooley
TTITLE8=7000 Rinder
TTITLE9=Oh My Darling Caroline
TTITLE10=So Ein Cowboy Wie Du
TTITLE11=On Top Of Old Smokey
TTITLE12=Aus Den Blauen Bergen Kommen Wir
TTITLE13=Bonanza
TTITLE14=Hit Medley
EXTD=
EXTT0=
EXTT1=
EXTT2=
EXTT3=
EXTT4=
EXTT5=
EXTT6=
EXTT7=
EXTT8=
EXTT9=
EXTT10=
EXTT11=
EXTT12=
EXTT13=
EXTT14=
PLAYORDER=
